#Comment line ignore any data following # character 
#Hierarchical Translation and Rotation (.htr) file 
[Header]	
#Header keywords are followed by a single value 
FileType HTR		#Single word string
DataType HTRS		#Translation followed by rotation and scale data
FileVersion 1		#integer
NumSegments 64		#integer
NumFrames 3		#integer
DataFrameRate 30		#integer, data frame rate in this file
EulerRotationOrder ZYX
CalibrationUnits mm
RotationUnits Degrees
GlobalAxisofGravity Y
BoneLengthAxis Y
ScaleFactor 1.00
[SegmentNames&Hierarchy]
#CHILD	PARENT
Pinger_Root GLOBAL
Pelvis Pinger_Root
L_Hip Pelvis
R_Hip Pelvis
Rear_Leg01 Pelvis
Spine1 Pelvis
L_Leg01 L_Hip
L_Leg02 L_Leg01
L_Leg03 L_Leg02
L_Foot L_Leg03
L_Toe1_01 L_Foot
L_Toe2_01 L_Foot
L_Toe3_01 L_Foot
planeAlignerLeft L_Foot
L_Toe1_02 L_Toe1_01
L_Toe1_03 L_Toe1_02
L_Toe2_02 L_Toe2_01
L_Toe2_03 L_Toe2_02
L_Toe3_02 L_Toe3_01
L_Toe3_03 L_Toe3_02
planeLockWeightLeft planeAlignerLeft
R_Leg01 R_Hip
R_Leg02 R_Leg01
R_Leg03 R_Leg02
R_Foot R_Leg03
planeAlignerRight R_Foot
R_Toe1_01 R_Foot
R_Toe2_01 R_Foot
R_Toe3_01 R_Foot
planeLockWeightRight planeAlignerRight
R_Toe1_02 R_Toe1_01
R_Toe1_03 R_Toe1_02
R_Toe2_02 R_Toe2_01
R_Toe2_03 R_Toe2_02
R_Toe3_02 R_Toe3_01
R_Toe3_03 R_Toe3_02
Rear_Leg02 Rear_Leg01
Rear_Leg03 Rear_Leg02
Rear_Leg04 Rear_Leg03
Rear_Foot Rear_Leg04
planeAlignerCenter Rear_Foot
Rear_Toe1_01 Rear_Foot
Rear_Toe2_01 Rear_Foot
Rear_Toe3_01 Rear_Foot
planeLockWeightCenter planeAlignerCenter
Rear_Toe1_02 Rear_Toe1_01
Rear_Toe1_03 Rear_Toe1_02
Rear_Toe2_02 Rear_Toe2_01
Rear_Toe2_03 Rear_Toe2_02
Rear_Toe3_02 Rear_Toe3_01
Rear_Toe3_03 Rear_Toe3_02
Back_Bone Spine1
Head Spine1
Motor_Bone Back_Bone
Ping_Mechanism Back_Bone
BN_LookIK Head
bottomMouth Head
L_Mouth01 Head
L_mouthFront Head
mouthGun Head
R_Mouth01 Head
R_mouthFront Head
TopMouth Head
weapon_bone Head
[BasePosition]
#SegmentName Tx, Ty, Tz, Rx, Ry, Rz, BoneLength
Pinger_Root 0.000000 0.000000 0.000000 -90.000000 0.000000 0.000000 10.000000 
Pelvis 0.000000 0.000000 0.000000 0.000000 0.000000 0.000000 10.000000 
L_Hip 0.000000 0.000000 0.000000 0.000000 0.000000 0.000000 10.000000 
R_Hip 0.000000 0.000000 0.000000 0.000000 0.000000 0.000000 10.000000 
Rear_Leg01 0.000000 0.000000 0.000000 0.000000 0.000000 0.000000 10.000000 
Spine1 0.000000 0.000000 0.000000 0.000000 0.000000 0.000000 10.000000 
L_Leg01 0.000000 0.000000 0.000000 0.000000 0.000000 0.000000 10.000000 
L_Leg02 0.000000 0.000000 0.000000 0.000000 0.000000 0.000000 10.000000 
L_Leg03 0.000000 0.000000 0.000000 0.000000 0.000000 0.000000 10.000000 
L_Foot 0.000000 0.000000 0.000000 0.000000 0.000000 0.000000 10.000000 
L_Toe1_01 0.000000 0.000000 0.000000 0.000000 0.000000 0.000000 10.000000 
L_Toe2_01 0.000000 0.000000 0.000000 0.000000 0.000000 0.000000 10.000000 
L_Toe3_01 0.000000 0.000000 0.000000 0.000000 0.000000 0.000000 10.000000 
planeAlignerLeft 0.000000 0.000000 0.000000 0.000000 0.000000 0.000000 10.000000 
L_Toe1_02 0.000000 0.000000 0.000000 0.000000 0.000000 0.000000 10.000000 
L_Toe1_03 0.000000 0.000000 0.000000 0.000000 0.000000 0.000000 10.000000 
L_Toe2_02 0.000000 0.000000 0.000000 0.000000 0.000000 0.000000 10.000000 
L_Toe2_03 0.000000 0.000000 0.000000 0.000000 0.000000 0.000000 10.000000 
L_Toe3_02 0.000000 0.000000 0.000000 0.000000 0.000000 0.000000 10.000000 
L_Toe3_03 0.000000 0.000000 0.000000 0.000000 0.000000 0.000000 10.000000 
planeLockWeightLeft 0.000000 0.000000 0.000000 0.000000 0.000000 0.000000 10.000000 
R_Leg01 0.000000 0.000000 0.000000 0.000000 0.000000 0.000000 10.000000 
R_Leg02 0.000000 0.000000 0.000000 0.000000 0.000000 0.000000 10.000000 
R_Leg03 0.000000 0.000000 0.000000 0.000000 0.000000 0.000000 10.000000 
R_Foot 0.000000 0.000000 0.000000 0.000000 0.000000 0.000000 10.000000 
planeAlignerRight 0.000000 0.000000 0.000000 0.000000 0.000000 0.000000 10.000000 
R_Toe1_01 0.000000 0.000000 0.000000 0.000000 0.000000 0.000000 10.000000 
R_Toe2_01 0.000000 0.000000 0.000000 0.000000 0.000000 0.000000 10.000000 
R_Toe3_01 0.000000 0.000000 0.000000 0.000000 0.000000 0.000000 10.000000 
planeLockWeightRight 0.000000 0.000000 0.000000 0.000000 0.000000 0.000000 10.000000 
R_Toe1_02 0.000000 0.000000 0.000000 0.000000 0.000000 0.000000 10.000000 
R_Toe1_03 0.000000 0.000000 0.000000 0.000000 0.000000 0.000000 10.000000 
R_Toe2_02 0.000000 0.000000 0.000000 0.000000 0.000000 0.000000 10.000000 
R_Toe2_03 0.000000 0.000000 0.000000 0.000000 0.000000 0.000000 10.000000 
R_Toe3_02 0.000000 0.000000 0.000000 0.000000 0.000000 0.000000 10.000000 
R_Toe3_03 0.000000 0.000000 0.000000 0.000000 0.000000 0.000000 10.000000 
Rear_Leg02 0.000000 0.000000 0.000000 0.000000 0.000000 0.000000 10.000000 
Rear_Leg03 0.000000 0.000000 0.000000 0.000000 0.000000 0.000000 10.000000 
Rear_Leg04 0.000000 0.000000 0.000000 0.000000 0.000000 0.000000 10.000000 
Rear_Foot 0.000000 0.000000 0.000000 0.000000 0.000000 0.000000 10.000000 
planeAlignerCenter 0.000000 0.000000 0.000000 0.000000 0.000000 0.000000 10.000000 
Rear_Toe1_01 0.000000 0.000000 0.000000 0.000000 0.000000 0.000000 10.000000 
Rear_Toe2_01 0.000000 0.000000 0.000000 0.000000 0.000000 0.000000 10.000000 
Rear_Toe3_01 0.000000 0.000000 0.000000 0.000000 0.000000 0.000000 10.000000 
planeLockWeightCenter 0.000000 0.000000 0.000000 0.000000 0.000000 0.000000 10.000000 
Rear_Toe1_02 0.000000 0.000000 0.000000 0.000000 0.000000 0.000000 10.000000 
Rear_Toe1_03 0.000000 0.000000 0.000000 0.000000 0.000000 0.000000 10.000000 
Rear_Toe2_02 0.000000 0.000000 0.000000 0.000000 0.000000 0.000000 10.000000 
Rear_Toe2_03 0.000000 0.000000 0.000000 0.000000 0.000000 0.000000 10.000000 
Rear_Toe3_02 0.000000 0.000000 0.000000 0.000000 0.000000 0.000000 10.000000 
Rear_Toe3_03 0.000000 0.000000 0.000000 0.000000 0.000000 0.000000 10.000000 
Back_Bone 0.000000 0.000000 0.000000 0.000000 0.000000 0.000000 10.000000 
Head 0.000000 0.000000 0.000000 0.000000 0.000000 0.000000 10.000000 
Motor_Bone 0.000000 0.000000 0.000000 0.000000 0.000000 0.000000 10.000000 
Ping_Mechanism 0.000000 0.000000 0.000000 0.000000 0.000000 0.000000 10.000000 
BN_LookIK 0.000000 0.000000 0.000000 0.000000 0.000000 0.000000 10.000000 
bottomMouth 0.000000 0.000000 0.000000 0.000000 0.000000 0.000000 10.000000 
L_Mouth01 0.000000 0.000000 0.000000 0.000000 0.000000 0.000000 10.000000 
L_mouthFront 0.000000 0.000000 0.000000 0.000000 0.000000 0.000000 10.000000 
mouthGun 0.000000 0.000000 0.000000 0.000000 0.000000 0.000000 10.000000 
R_Mouth01 0.000000 0.000000 0.000000 0.000000 0.000000 0.000000 10.000000 
R_mouthFront 0.000000 0.000000 0.000000 0.000000 0.000000 0.000000 10.000000 
TopMouth 0.000000 0.000000 0.000000 0.000000 0.000000 0.000000 10.000000 
weapon_bone 0.000000 0.000000 0.000000 0.000000 0.000000 0.000000 10.000000 
#Beginning of Data. Separated by tabs
#Fr	Tx	Ty	Tz	Rx	Ry	Rz	SF
[Pinger_Root]
21 -1778.425781 -0.000491 0.000000 -0.000075 -0.000000 -0.000020 1778.425903
22 -1860.000000 -0.000513 0.000000 -0.000075 -0.000000 -0.000020 1860.000000
23 -1938.309082 -0.000535 0.000000 -0.000075 -0.000000 -0.000020 1938.309082
[Pelvis]
21 10.918332 -124.882301 4722.349609 33.982418 -71.319489 14.559161 4724.013184
22 49.115368 -114.773895 4747.389160 34.404305 -70.995277 15.293103 4749.030273
23 84.908607 -98.551567 4757.098633 35.045544 -70.903030 15.555040 4758.876953
[L_Hip]
21 5.766392 125.831482 872.656799 -178.253311 -81.787758 87.381340 881.701050
22 5.766392 125.831482 872.656799 -178.253311 -81.787758 87.381340 881.701050
23 5.766392 125.831482 872.656799 -178.253311 -81.787758 87.381340 881.701050
[R_Hip]
21 5.765438 125.836372 -872.654907 -1.746690 81.787712 87.381248 881.699829
22 5.765438 125.836372 -872.654907 -1.746690 81.787712 87.381248 881.699829
23 5.765438 125.836372 -872.654907 -1.746690 81.787712 87.381248 881.699829
[Rear_Leg01]
21 -192.298416 -925.602966 -0.001907 166.924881 23.458231 -170.531418 945.367432
22 -192.298416 -925.602966 -0.001907 171.165878 24.936529 -164.468246 945.367432
23 -192.298416 -925.602966 -0.001907 175.264984 25.634396 -159.169525 945.367432
[Spine1]
21 290.604584 5.007505 0.000477 -41.184242 3.595272 32.170326 290.647736
22 290.604584 5.007505 0.000477 -42.322041 3.835768 32.019012 290.647736
23 290.604584 5.007505 0.000477 -43.460575 4.073169 31.862928 290.647736
[L_Leg01]
21 761.932007 -0.002384 -0.069261 68.623573 -15.112294 -88.202225 761.932068
22 761.932007 -0.002384 -0.069261 68.935753 -14.526786 -88.745438 761.932068
23 761.932007 -0.002384 -0.069261 69.241379 -13.938450 -89.283951 761.932068
[L_Leg02]
21 1441.140503 -0.000954 -0.000715 -1.022839 0.950589 -109.936707 1441.140503
22 1441.140503 -0.000954 -0.000715 -1.029471 0.948697 -109.561768 1441.140503
23 1441.140503 -0.000954 -0.000715 -1.057168 0.932302 -110.143951 1441.140503
[L_Leg03]
21 1686.963989 -0.000715 -0.000954 0.140850 -0.002683 72.167343 1686.963989
22 1686.963989 -0.000715 -0.000954 0.140846 -0.002902 72.344917 1686.963989
23 1686.963989 -0.000715 -0.000954 0.133864 -0.005911 74.001785 1686.963989
[L_Foot]
21 3041.570068 -30.715107 11.297464 -10.509715 9.126655 96.947983 3041.746094
22 3041.570068 -30.715107 11.297464 -10.351151 8.361693 96.747139 3041.746094
23 3041.570068 -30.715107 11.297464 -10.190177 7.597289 96.544518 3041.746094
[L_Toe1_01]
21 -188.216690 -224.732346 -21.137953 89.231682 -2.342171 -158.370895 293.899567
22 -188.216690 -224.732346 -21.137953 89.138084 -1.846029 -156.462570 293.899567
23 -188.216690 -224.732346 -21.137953 89.005188 -0.649807 -153.227020 293.899567
[L_Toe2_01]
21 200.746536 -219.926590 148.838394 -76.725197 -13.803944 -48.240761 332.896027
22 200.746536 -219.926590 148.838394 -76.508194 -13.025681 -49.701820 332.896027
23 200.746536 -219.926590 148.838394 -76.289383 -11.208213 -52.027023 332.896027
[L_Toe3_01]
21 188.832520 -219.859131 -191.078659 -106.844231 15.735543 -49.756817 347.140900
22 188.832520 -219.859131 -191.078659 -107.459503 15.891516 -51.588749 347.140900
23 188.832520 -219.859131 -191.078659 -108.618645 16.478621 -54.777393 347.140900
[planeAlignerLeft]
21 -70.895088 -663.533264 11.382581 0.000000 -89.951546 -90.054779 667.406982
22 -77.293251 -683.193787 2.096058 0.000000 -89.937447 -90.057434 687.555359
23 -86.892776 -714.573120 -20.042267 0.000000 -89.944046 -90.060097 720.115784
[L_Toe1_02]
21 413.761139 0.000477 0.000000 0.001391 -25.044367 0.001391 413.761139
22 413.761139 0.000477 0.000000 0.001388 -25.452524 0.001388 413.761139
23 413.761139 0.000477 0.000000 0.001385 -25.860678 0.001385 413.761139
[L_Toe1_03]
21 464.317322 0.000358 -0.000089 0.005846 66.839661 0.005846 464.317322
22 464.317322 0.000358 -0.000089 0.005168 63.749966 0.005168 464.317322
23 464.317322 0.000358 -0.000089 0.004311 58.403542 0.004311 464.317322
[L_Toe2_02]
21 342.235809 -0.000477 0.000238 0.001180 -78.486435 0.001180 342.235809
22 342.235809 -0.000477 0.000238 0.001180 -78.244797 0.001180 342.235809
23 342.235809 -0.000477 0.000238 0.001180 -78.003181 0.001180 342.235809
[L_Toe2_03]
21 420.210846 -0.000715 0.000000 -179.997650 73.919014 -179.994141 420.210846
22 420.210846 -0.000715 0.000000 -179.997528 74.454460 -179.993988 420.210846
23 420.210846 -0.000715 0.000000 -179.997131 75.748344 -179.993607 420.210846
[L_Toe3_02]
21 329.270111 0.000954 0.000000 0.001176 -82.188675 0.001176 329.270111
22 329.270111 0.000954 0.000000 0.001177 -81.678856 0.001177 329.270111
23 329.270111 0.000954 0.000000 0.001177 -81.168777 0.001177 329.270111
[L_Toe3_03]
21 439.137451 -0.001907 0.000954 -179.998291 71.039139 -179.994736 439.137451
22 439.137451 -0.001907 0.000954 -179.997971 72.614639 -179.994431 439.137451
23 439.137451 -0.001907 0.000954 -179.997116 75.808411 -179.993591 439.137451
[planeLockWeightLeft]
21 1000.000122 -0.000305 -0.000053 -0.011826 -0.004376 0.005620 1000.000122
22 1000.000122 -0.000305 -0.000049 -0.011826 -0.004376 0.005620 1000.000122
23 1000.000122 -0.000305 -0.000045 -0.011826 -0.004376 0.005620 1000.000122
[R_Leg01]
21 761.455627 -0.001907 -0.000358 113.420624 10.103519 39.745304 761.455688
22 761.455627 -0.001907 -0.000358 112.806641 14.243078 42.971607 761.455688
23 761.455627 -0.001907 -0.000358 112.801682 17.487703 45.966400 761.455688
[R_Leg02]
21 1441.140625 0.000000 -0.000238 -0.924729 -0.276691 -123.866684 1441.140625
22 1441.140625 0.000000 -0.000238 -1.024926 -0.369171 -123.112617 1441.140625
23 1441.140625 0.000000 -0.000238 -1.046718 -0.385518 -121.565346 1441.140625
[R_Leg03]
21 1686.963989 0.000954 0.001431 0.099063 -0.058622 137.268219 1686.963989
22 1686.963989 0.000954 0.001431 0.110258 -0.066971 140.096054 1686.963989
23 1686.963989 0.000954 0.001431 0.109875 -0.067597 140.747803 1686.963989
[R_Foot]
21 3041.560059 -30.531288 -11.204481 34.447876 -46.924755 28.033525 3041.734131
22 3041.560059 -30.531288 -11.204481 26.932055 -50.501480 38.855469 3041.734131
23 3041.560059 -30.531288 -11.204481 18.804491 -52.621784 51.178005 3041.734131
[planeAlignerRight]
21 -249.034561 -775.785645 36.247467 0.000000 -89.934387 -90.043106 815.582886
22 -243.091721 -781.251892 27.864357 0.000000 -89.925987 -90.044998 818.672424
23 -236.736603 -789.505615 15.777206 0.000000 -89.931473 -90.046921 824.385986
[R_Toe1_01]
21 -188.383347 -224.864899 21.052242 91.271606 1.187407 -145.989655 294.101532
22 -188.383347 -224.864899 21.052242 91.200912 1.396950 -146.196228 294.101532
23 -188.383347 -224.864899 21.052242 91.206215 1.444461 -145.888290 294.101532
[R_Toe2_01]
21 200.637817 -220.002121 -148.787384 -107.331970 6.942214 -80.238770 332.857574
22 200.637817 -220.002121 -148.787384 -107.367622 7.861198 -79.440842 332.857574
23 200.637817 -220.002121 -148.787384 -107.390396 8.780586 -78.641617 332.857574
[R_Toe3_01]
21 188.606735 -220.092957 191.126343 -67.256889 -12.615943 -81.587585 347.192566
22 188.606735 -220.092957 191.126343 -67.370018 -12.288325 -80.689667 347.192566
23 188.606735 -220.092957 191.126343 -67.477722 -11.959055 -79.793602 347.192566
[planeLockWeightRight]
21 0.000198 0.000000 0.000000 -0.011823 -0.004379 -0.000027 0.000198
22 104.000252 0.000000 0.000076 -0.011823 -0.004379 -0.000027 104.000259
23 351.999817 0.000000 -0.000076 -0.011823 -0.004379 -0.000027 351.999817
[R_Toe1_02]
21 413.762085 0.000477 -0.000119 0.001414 -22.169418 0.001414 413.762085
22 413.762085 0.000477 -0.000119 0.001405 -23.261164 0.001405 413.762085
23 413.762085 0.000477 -0.000119 0.001397 -24.353006 0.001397 413.762085
[R_Toe1_03]
21 464.317810 0.000000 0.001088 -0.010174 82.173340 -0.006669 464.317810
22 464.317810 0.000000 0.001088 0.011041 77.796295 0.011041 464.317810
23 464.317810 0.000000 0.001088 0.007418 71.794403 0.007418 464.317810
[R_Toe2_02]
21 342.234741 -0.000954 0.000238 -0.002331 -80.737640 -0.002331 342.234741
22 342.234741 -0.000954 0.000238 -0.002331 -80.721024 -0.002331 342.234741
23 342.234741 -0.000954 0.000238 -0.002331 -80.704407 -0.002331 342.234741
[R_Toe2_03]
21 420.210846 0.000715 -0.000268 -179.996368 52.502781 179.999939 420.210846
22 420.210846 0.000715 -0.000268 -179.996338 53.308445 179.999985 420.210846
23 420.210846 0.000715 -0.000268 -179.996307 54.114162 -179.999985 420.210846
[R_Toe3_02]
21 329.270355 -0.000477 -0.000954 0.001175 -84.402626 0.001175 329.270355
22 329.270355 -0.000477 -0.000954 0.001175 -84.381439 0.001175 329.270355
23 329.270355 -0.000477 -0.000954 0.001175 -84.360374 0.001175 329.270355
[R_Toe3_03]
21 439.137939 0.000238 0.001431 -179.996262 53.479668 -179.988907 439.137939
22 439.137939 0.000238 0.001431 -179.996201 53.851952 -179.988831 439.137939
23 439.137939 0.000238 0.001431 -179.996109 54.224220 -179.988770 439.137939
[Rear_Leg02]
21 1162.777710 -0.029802 0.005960 -27.110247 7.623426 -162.438370 1162.777710
22 1162.777710 -0.029802 0.005960 -30.196714 8.689359 -156.022186 1162.777710
23 1162.777710 -0.029802 0.005960 -32.814209 9.423188 -151.156174 1162.777710
[Rear_Leg03]
21 607.192505 -0.013351 -0.073195 0.009895 -0.006185 80.369904 607.192505
22 607.192505 -0.013351 -0.073195 0.009898 -0.006180 80.312500 607.192505
23 607.192505 -0.013351 -0.073195 0.009901 -0.006175 80.255096 607.192505
[Rear_Leg04]
21 995.874512 -0.020504 -0.011921 -0.042053 -0.015542 105.252823 995.874573
22 995.874512 -0.020504 -0.011921 -0.042016 -0.015640 104.984970 995.874573
23 995.874512 -0.020504 -0.011921 -0.041979 -0.015738 104.717125 995.874573
[Rear_Foot]
21 3096.176270 -0.067472 -0.041425 77.443916 61.235870 -129.032867 3096.176270
22 3096.176270 -0.067472 -0.041425 79.685501 58.224945 -128.450714 3096.176270
23 3096.176270 -0.067472 -0.041425 81.295853 55.710144 -128.036789 3096.176270
[planeAlignerCenter]
21 -80.561653 77.212791 -761.166626 0.001964 -0.001286 156.418488 769.302734
22 -49.422207 56.646847 -786.081726 0.001956 -0.001298 157.125381 789.668274
23 -20.041924 39.645386 -807.555054 0.001948 -0.001310 157.832245 808.776062
[Rear_Toe1_01]
21 0.653352 83.966492 -371.173737 1.707711 24.777256 70.333023 380.553192
22 0.653352 83.966492 -371.173737 0.963090 26.259947 69.022736 380.553192
23 0.653352 83.966492 -371.173737 0.143297 27.664782 68.032776 380.553192
[Rear_Toe2_01]
21 178.200760 -294.826019 -362.060547 -9.114904 49.583328 -113.228767 499.765686
22 178.200760 -294.826019 -362.060547 -7.901445 50.897739 -109.752701 499.765686
23 178.200760 -294.826019 -362.060547 -6.544529 51.913513 -106.004539 499.765686
[Rear_Toe3_01]
21 -153.359680 -308.780914 -362.060852 -10.000181 48.976711 -153.837006 499.952881
22 -153.359680 -308.780914 -362.060852 -9.210498 50.664131 -150.716370 499.952881
23 -153.359680 -308.780914 -362.060852 -8.166881 52.184940 -147.221542 499.952881
[planeLockWeightCenter]
21 1000.000244 0.000610 -0.000137 -0.011814 -0.004373 -0.000015 1000.000244
22 1000.000244 0.000616 -0.000139 -0.011814 -0.004373 -0.000015 1000.000244
23 1000.000244 0.000622 -0.000142 -0.011814 -0.004373 -0.000015 1000.000244
[Rear_Toe1_02]
21 379.707825 0.194073 0.000477 0.000490 -33.568527 0.001586 379.707855
22 379.707825 0.194073 0.000477 0.000280 -33.567383 0.001649 379.707855
23 379.707825 0.194073 0.000477 0.000069 -33.566231 0.001713 379.707855
[Rear_Toe1_03]
21 500.129700 0.165701 0.000119 0.008440 74.014099 0.008440 500.129761
22 500.129700 0.165701 0.000119 0.007971 73.066223 0.007971 500.129761
23 500.129700 0.165701 0.000119 0.007551 72.118340 0.007551 500.129761
[Rear_Toe2_02]
21 340.494507 0.000238 -0.000954 0.001183 -76.076546 0.001183 340.494507
22 340.494507 0.000238 -0.000954 0.001185 -74.324547 0.001185 340.494507
23 340.494507 0.000238 -0.000954 0.001187 -72.573708 0.001187 340.494507
[Rear_Toe2_03]
21 433.103577 0.000000 0.000238 0.013943 80.331245 0.013943 433.103546
22 433.103577 0.000000 0.000238 0.010371 77.004196 0.010371 433.103546
23 433.103577 0.000000 0.000238 0.008499 74.125595 0.008499 433.103546
[Rear_Toe3_02]
21 340.494141 -0.000358 -0.000477 0.001187 -72.802650 0.001187 340.494171
22 340.494141 -0.000358 -0.000477 0.001186 -73.282974 0.001186 340.494171
23 340.494141 -0.000358 -0.000477 0.001186 -73.763268 0.001186 340.494171
[Rear_Toe3_03]
21 433.103577 0.001431 -0.000238 0.008742 74.568741 0.008742 433.103546
22 433.103577 0.001431 -0.000238 0.009249 75.420303 0.009249 433.103546
23 433.103577 0.001431 -0.000238 0.009839 76.297661 0.009839 433.103546
[Back_Bone]
21 1312.175781 -701.934692 0.000954 2.388011 -3.614186 -86.120338 1488.125488
22 1312.175781 -701.934692 0.000954 2.322811 -3.577685 -85.433586 1488.125488
23 1312.175781 -701.934692 0.000954 2.258057 -3.540407 -84.746895 1488.125488
[Head]
21 1406.159424 809.709290 0.001431 -9.436758 3.453394 4.127351 1622.625488
22 1406.159424 809.709290 0.001431 -9.425883 3.301674 4.052545 1622.625488
23 1406.159424 809.709290 0.001431 -9.414815 3.149971 3.977722 1622.625488
[Motor_Bone]
21 1158.364380 -417.834747 0.000477 -3.495537 0.584004 -105.401466 1231.419434
22 1158.364380 -417.834747 0.000477 0.251859 -0.541810 -106.527908 1231.419434
23 1158.364380 -417.834747 0.000477 2.270587 -1.149517 -107.133400 1231.419434
[Ping_Mechanism]
21 1232.834595 -421.060822 90.618713 0.000103 -0.000053 82.120995 1305.903931
22 1234.542236 -421.138275 92.243805 0.000103 -0.000053 82.120995 1307.654785
23 1234.581909 -421.736969 92.360497 0.000103 -0.000053 82.120995 1307.893433
[BN_LookIK]
21 193.241119 1380.371704 -0.002861 0.000000 89.965736 -31.038179 1393.832153
22 193.241119 1380.371704 -0.002861 0.000000 89.965736 -31.038179 1393.832153
23 193.241119 1380.371704 -0.002861 0.000000 89.965736 -31.038179 1393.832153
[bottomMouth]
21 -435.092926 615.759399 -0.000954 -0.000022 0.000016 73.527184 753.966492
22 -435.092926 615.759399 -0.000954 -0.000022 0.000016 73.527184 753.966492
23 -435.092926 615.759399 -0.000954 -0.000022 0.000016 73.527184 753.966492
[L_Mouth01]
21 554.440979 7.658243 838.222046 150.204178 23.759130 109.605339 1005.027161
22 554.440979 7.658243 838.222046 150.204178 23.759130 109.605339 1005.027161
23 554.440979 7.658243 838.222046 150.204178 23.759130 109.605339 1005.027161
[L_mouthFront]
21 551.629089 934.514771 339.150421 0.000081 2.804060 79.119301 1136.941284
22 551.629089 934.514771 339.150421 0.000081 2.804060 79.119301 1136.941284
23 551.629089 934.514771 339.150421 0.000081 2.804060 79.119301 1136.941284
[mouthGun]
21 55.332661 1627.420898 0.000000 0.000023 0.000009 -11.038128 1628.361328
22 55.332661 1627.420898 0.000000 0.000023 0.000009 -11.038128 1628.361328
23 55.332661 1627.420898 0.000000 0.000023 0.000009 -11.038128 1628.361328
[R_Mouth01]
21 554.442383 7.659197 -838.223938 29.795891 -23.759109 109.605331 1005.029541
22 554.442383 7.659197 -838.223938 29.795891 -23.759109 109.605331 1005.029541
23 554.442383 7.659197 -838.223938 29.795891 -23.759109 109.605331 1005.029541
[R_mouthFront]
21 551.629089 934.514282 -339.151367 0.000029 -2.803930 79.119133 1136.941162
22 551.629089 934.514282 -339.151367 0.000029 -2.803930 79.119133 1136.941162
23 551.629089 934.514282 -339.151367 0.000029 -2.803930 79.119133 1136.941162
[TopMouth]
21 461.269867 -56.106091 -0.008583 -0.000059 -0.000268 92.025169 464.669525
22 461.269867 -56.106091 -0.008583 -0.000059 -0.000268 92.025169 464.669525
23 461.269867 -56.106091 -0.008583 -0.000059 -0.000268 92.025169 464.669525
[weapon_bone]
21 -987.239868 1448.372803 0.001431 0.000000 89.965736 -31.038221 1752.833740
22 -987.239868 1448.372803 0.001431 0.000000 89.965736 -31.038221 1752.833740
23 -987.239868 1448.372803 0.001431 0.000000 89.965736 -31.038221 1752.833740
